<svg width="22" height="20" viewBox="0 0 22 20" fill="none" xmlns="http://www.w3.org/2000/svg">
<path d="M0.78125 3.57031H21.0938C21.4844 3.57031 21.875 3.22852 21.875 2.78906V0.835938C21.875 0.445312 21.4844 0.0546875 21.0938 0.0546875H0.78125C0.341797 0.0546875 0 0.445312 0 0.835938V2.78906C0 3.22852 0.341797 3.57031 0.78125 3.57031ZM0.78125 11.3828H21.0938C21.4844 11.3828 21.875 11.041 21.875 10.6016V8.64844C21.875 8.25781 21.4844 7.86719 21.0938 7.86719H0.78125C0.341797 7.86719 0 8.25781 0 8.64844V10.6016C0 11.041 0.341797 11.3828 0.78125 11.3828ZM0.78125 19.1953H21.0938C21.4844 19.1953 21.875 18.8535 21.875 18.4141V16.4609C21.875 16.0703 21.4844 15.6797 21.0938 15.6797H0.78125C0.341797 15.6797 0 16.0703 0 16.4609V18.4141C0 18.8535 0.341797 19.1953 0.78125 19.1953Z" fill="#DC3A61"/>
</svg>
