<svg width="40" height="40" viewBox="0 0 40 40" fill="none" xmlns="http://www.w3.org/2000/svg">
<path d="M20 0C8.97133 0 0 8.97219 0 20C0 31.0278 8.97133 40 20 40C31.0287 40 40 31.0278 40 20C40 8.97219 31.0287 0 20 0ZM20 38.3334C9.89094 38.3334 1.66664 30.1091 1.66664 20C1.66664 9.89094 9.89094 1.66664 20 1.66664C30.1091 1.66664 38.3334 9.89094 38.3334 20C38.3334 30.1091 30.1091 38.3334 20 38.3334Z" fill="white"/>
<path d="M27.9509 19.2993L16.2842 11.7993C16.0287 11.6325 15.6983 11.6235 15.4346 11.7684C15.166 11.9149 15 12.1949 15 12.5V27.5C15 27.8052 15.166 28.0852 15.4346 28.2317C15.5583 28.2992 15.6966 28.3334 15.8334 28.3334C15.9896 28.3334 16.1475 28.2894 16.2842 28.2007L27.9509 20.7007C28.1885 20.5478 28.3334 20.2832 28.3334 20C28.3334 19.7168 28.1885 19.4524 27.9509 19.2993ZM16.6666 25.9733V14.0267L25.9587 20L16.6666 25.9733Z" fill="white"/>
</svg>
