<svg width="18" height="18" viewBox="0 0 18 18" fill="none" xmlns="http://www.w3.org/2000/svg">
<path d="M12.0082 3.00003C12.0055 3 12.0028 2.99961 12.0001 2.99961H7.81059L8.78031 2.02989C9.07321 1.73699 9.07321 1.26208 8.78031 0.969186C8.48741 0.676287 8.0125 0.676287 7.71961 0.969186L5.46951 3.21928C5.45204 3.23675 5.43552 3.25514 5.41984 3.27423C5.41273 3.28288 5.40655 3.29202 5.39987 3.30091C5.39185 3.3116 5.38359 3.32204 5.37617 3.33315C5.36903 3.34381 5.36284 3.35488 5.35634 3.36582C5.35033 3.37587 5.344 3.38571 5.33844 3.39609C5.3325 3.40723 5.32744 3.41869 5.3221 3.43005C5.317 3.44088 5.31158 3.45153 5.30698 3.4626C5.30241 3.47364 5.29872 3.48493 5.29471 3.49611C5.29042 3.50799 5.28588 3.51974 5.28219 3.5319C5.27882 3.54308 5.27632 3.55447 5.27347 3.56579C5.27034 3.5782 5.26686 3.59044 5.26437 3.60309C5.26177 3.61617 5.26022 3.62939 5.25836 3.64254C5.25677 3.65358 5.2547 3.66441 5.25357 3.67559C5.25118 3.69995 5.24988 3.72439 5.24988 3.74886C5.24988 3.7491 5.24985 3.74935 5.24985 3.7496C5.24985 3.74988 5.24988 3.75012 5.24988 3.75041C5.24992 3.77484 5.25118 3.79927 5.25357 3.8236C5.25466 3.83478 5.25677 3.84565 5.25836 3.85669C5.26025 3.86987 5.26177 3.88306 5.26437 3.89613C5.26686 3.90879 5.27034 3.92103 5.27347 3.93344C5.27632 3.94476 5.27878 3.95611 5.28219 3.96729C5.28588 3.97946 5.29045 3.9912 5.29471 4.00312C5.29872 4.0143 5.30241 4.02555 5.30694 4.03655C5.31155 4.04766 5.31696 4.05832 5.32206 4.06914C5.32741 4.0805 5.33247 4.09196 5.33841 4.10307C5.34396 4.11344 5.35029 4.12332 5.35634 4.13338C5.36284 4.14428 5.36903 4.15535 5.37617 4.166C5.38362 4.17715 5.39192 4.18763 5.39994 4.19831C5.40658 4.20717 5.41273 4.21632 5.41984 4.22493C5.43552 4.24405 5.45204 4.26244 5.46951 4.27992L7.71961 6.53001C8.0125 6.82291 8.48741 6.82291 8.78031 6.53001C9.07321 6.23711 9.07321 5.7622 8.78031 5.4693L7.81059 4.49958H11.9938C11.9958 4.49958 11.9977 4.4999 11.9997 4.4999C14.4881 4.4999 16.4999 6.51169 16.4999 9.00008C16.4999 10.0924 16.0637 11.1201 15.3003 11.8841C15.0075 12.1771 15.0077 12.652 15.3008 12.9448C15.5938 13.2376 16.0687 13.2374 16.3615 12.9444C17.4026 11.9024 18 10.4949 18 9.00008C18 5.68615 15.3211 3.00461 12.0082 3.00003Z" fill="white"/>
<path d="M12.6002 14.6987C12.6081 14.688 12.6164 14.6776 12.6238 14.6665C12.631 14.6558 12.6372 14.6448 12.6437 14.6338C12.6497 14.6237 12.656 14.6139 12.6615 14.6036C12.6675 14.5924 12.6726 14.5809 12.6779 14.5695C12.683 14.5587 12.6884 14.5481 12.693 14.5371C12.6976 14.526 12.7013 14.5147 12.7053 14.5034C12.7095 14.4916 12.7141 14.4799 12.7177 14.4678C12.7211 14.4566 12.7236 14.4451 12.7265 14.4338C12.7296 14.4214 12.7331 14.4092 12.7356 14.3967C12.7382 14.3835 12.7397 14.3702 12.7416 14.3569C12.7432 14.346 12.7453 14.3352 12.7464 14.3242C12.7512 14.2749 12.7512 14.2253 12.7464 14.1761C12.7453 14.165 12.7432 14.1542 12.7416 14.1433C12.7397 14.1301 12.7382 14.1168 12.7356 14.1036C12.7331 14.091 12.7297 14.0788 12.7265 14.0665C12.7237 14.0551 12.7212 14.0437 12.7178 14.0324C12.7141 14.0203 12.7095 14.0086 12.7053 13.9968C12.7012 13.9855 12.6976 13.9742 12.693 13.9631C12.6884 13.9521 12.683 13.9415 12.6779 13.9307C12.6726 13.9193 12.6675 13.9078 12.6615 13.8966C12.656 13.8863 12.6497 13.8765 12.6437 13.8665C12.6372 13.8555 12.6309 13.8444 12.6238 13.8337C12.6164 13.8226 12.6081 13.8122 12.6002 13.8016C12.5935 13.7926 12.5873 13.7835 12.5801 13.7748C12.5647 13.7559 12.5484 13.7378 12.5312 13.7206C12.5309 13.7203 12.5307 13.72 12.5304 13.7198L10.2804 11.4697C9.98746 11.1768 9.51255 11.1768 9.21965 11.4697C8.92675 11.7626 8.92675 12.2375 9.21965 12.5304L10.1894 13.5001H6.0062C6.0042 13.5001 6.00226 13.4998 6.00026 13.4998C3.51187 13.4998 1.50007 11.488 1.50007 8.99964C1.50007 7.90736 1.93631 6.87966 2.69969 6.11562C2.99248 5.82258 2.99227 5.3477 2.69923 5.05491C2.40619 4.76211 1.93132 4.76233 1.63852 5.05537C0.597435 6.09726 0 7.50473 0 8.99957C0 12.3136 2.67888 14.9951 5.99182 14.9997C5.99453 14.9998 5.99716 15.0001 5.99987 15.0001H10.1894L9.21965 15.9699C8.92675 16.2628 8.92675 16.7377 9.21965 17.0306C9.51255 17.3235 9.98746 17.3235 10.2804 17.0306L12.5304 14.7805C12.5306 14.7803 12.5307 14.7802 12.5308 14.7801C12.5481 14.7627 12.5646 14.7445 12.5801 14.7255C12.5873 14.7168 12.5935 14.7076 12.6002 14.6987Z" fill="white"/>
</svg>
