<svg width="21" height="20" viewBox="0 0 21 20" fill="none" xmlns="http://www.w3.org/2000/svg">
<path fill-rule="evenodd" clip-rule="evenodd" d="M14.1861 12.796L18.0598 16.8249C18.3875 17.1657 18.3767 17.7091 18.0361 18.0369C17.8758 18.1911 17.6647 18.276 17.4421 18.276C17.207 18.276 16.9875 18.1826 16.8244 18.0131L12.9212 13.9537C11.813 14.7326 10.5167 15.1429 9.15639 15.1429C5.53296 15.1429 2.58496 12.1949 2.58496 8.57143C2.58496 4.948 5.53296 2 9.15639 2C12.7798 2 15.7278 4.948 15.7278 8.57143C15.7278 10.1223 15.1821 11.612 14.1861 12.796ZM14.0135 8.57143C14.0135 5.89314 11.8347 3.71429 9.15639 3.71429C6.4781 3.71429 4.29925 5.89314 4.29925 8.57143C4.29925 11.2497 6.4781 13.4286 9.15639 13.4286C11.8347 13.4286 14.0135 11.2497 14.0135 8.57143Z" fill="black"/>
</svg>
